<svg xmlns="http://www.w3.org/2000/svg" version="1.1" xmlns:xlink="http://www.w3.org/1999/xlink" xmlns:svgjs="http://svgjs.com/svgjs" width="1440" height="1024" preserveAspectRatio="none" viewBox="0 0 1440 1024">
    <g mask="url(&quot;#SvgjsMask1002&quot;)" fill="none">
        <rect width="1440" height="1024" x="0" y="0" fill="rgba(0, 0, 0, 0.5)"></rect>
        <path d="M0,502.182C125.459,528.906,257.86,638.05,369.836,575.475C480.081,513.866,458.754,346.96,494.509,225.835C524.809,123.192,575.861,25.283,563.634,-81.038C551.223,-188.964,490.78,-281.931,426.082,-369.202C356.907,-462.512,289.019,-572.1,176.95,-602.637C65.265,-633.069,-49.446,-575.27,-154.889,-527.505C-248.951,-484.896,-323.291,-416.465,-395.969,-343.109C-473.679,-264.674,-571.123,-193.482,-593.04,-85.266C-615.286,24.573,-570.42,138.052,-512.9,234.234C-459.092,324.21,-373.695,388.347,-280.773,436.891C-193.846,482.303,-95.922,481.75,0,502.182" fill="rgba(0, 0, 0, 0.5)"></path>
        <path d="M1440 1711.719C1564.872 1691.471 1668.289 1605.955 1754.509 1513.385 1827.446 1435.076 1836.872 1322.472 1889.391 1229.23 1948.589 1124.13 2066.84 1051.319 2082.161 931.671 2098.86 801.263 2059.321 661.29 1975.039 560.386 1890.234 458.855 1759.2939999999999 391.446 1627.085 386.846 1503.795 382.55600000000004 1413.41 496.11800000000005 1296.943 536.793 1188.751 574.578 1041.674 527.3009999999999 969.659 616.447 897.27 706.0550000000001 970.879 840.27 959.202 954.872 948.192 1062.932 888.251 1161.579 903.151 1269.171 921.255 1399.897 950.483 1543.3 1052.317 1627.246 1156.481 1713.113 1306.746 1733.326 1440 1711.719" fill="rgba(0, 0, 0, 0.5)"></path>
    </g>
    <defs>
        <mask id="SvgjsMask1002">
            <rect width="1440" height="1024" fill="#ffffff"></rect>
        </mask>
    </defs>
</svg>